<svg xmlns="http://www.w3.org/2000/svg" width="920" height="430" viewBox="0 0 920 430">
<rect width="100%" height="100%" fill="#ffffff"/>
<text x="16" y="30" font-family="Arial, sans-serif" font-size="20" font-weight="700" fill="#1f2933">Content pillar lift vs baseline (%)</text>
<g font-family="Arial, sans-serif"><text x="16" y="75" font-size="13" fill="#28323c">events/live music/DJ</text>
<rect x="260" y="61" width="628" height="18" fill="#2f6f73"/>
<text x="896" y="75" font-size="12" fill="#28323c">249.7</text>
<text x="16" y="109" font-size="13" fill="#28323c">cocktails/drinks</text>
<rect x="260" y="95" width="189" height="18" fill="#2f6f73"/>
<text x="457" y="109" font-size="12" fill="#28323c">75.2</text>
<text x="16" y="143" font-size="13" fill="#28323c">dinner/nightlife</text>
<rect x="260" y="129" width="74" height="18" fill="#2f6f73"/>
<text x="342" y="143" font-size="12" fill="#28323c">29.5</text>
<text x="16" y="177" font-size="13" fill="#28323c">promotions/offers</text>
<rect x="260" y="163" width="53" height="18" fill="#2f6f73"/>
<text x="321" y="177" font-size="12" fill="#28323c">21</text>
<text x="16" y="211" font-size="13" fill="#28323c">birthdays/celebrations</text>
<rect x="260" y="197" width="31" height="18" fill="#2f6f73"/>
<text x="299" y="211" font-size="12" fill="#28323c">12.2</text>
<text x="16" y="245" font-size="13" fill="#28323c">food</text>
<rect x="260" y="231" width="-11" height="18" fill="#2f6f73"/>
<text x="257" y="245" font-size="12" fill="#28323c">-4.2</text>
<text x="16" y="279" font-size="13" fill="#28323c">date night/romance</text>
<rect x="260" y="265" width="-33" height="18" fill="#2f6f73"/>
<text x="235" y="279" font-size="12" fill="#28323c">-13.2</text>
<text x="16" y="313" font-size="13" fill="#28323c">ambience/decor/vibe</text>
<rect x="260" y="299" width="-164" height="18" fill="#2f6f73"/>
<text x="104" y="313" font-size="12" fill="#28323c">-65.2</text>
<text x="16" y="347" font-size="13" fill="#28323c">reservations/bookings</text>
<rect x="260" y="333" width="-176" height="18" fill="#2f6f73"/>
<text x="92" y="347" font-size="12" fill="#28323c">-70.1</text>
<text x="16" y="381" font-size="13" fill="#28323c">general brand/content</text>
<rect x="260" y="367" width="-199" height="18" fill="#2f6f73"/>
<text x="69" y="381" font-size="12" fill="#28323c">-79.3</text></g>
</svg>
